<?xml version="1.0" encoding="utf-8"?>
<!-- Generator: Adobe Illustrator 21.1.0, SVG Export Plug-In . SVG Version: 6.00 Build 0)  -->
<svg version="1.1"
	 id="Layer_1" xmlns:cc="http://creativecommons.org/ns#" xmlns:dc="http://purl.org/dc/elements/1.1/" xmlns:inkscape="http://www.inkscape.org/namespaces/inkscape" xmlns:rdf="http://www.w3.org/1999/02/22-rdf-syntax-ns#" xmlns:sodipodi="http://sodipodi.sourceforge.net/DTD/sodipodi-0.dtd" xmlns:svg="http://www.w3.org/2000/svg"
	 xmlns="http://www.w3.org/2000/svg" xmlns:xlink="http://www.w3.org/1999/xlink" x="0px" y="0px" viewBox="0 0 200 200"
	 style="enable-background:new 0 0 200 200;" xml:space="preserve">
<style type="text/css">
	.st0{fill:#ED1C24;}
</style>
<g transform="translate(0,-952.36218)">
	<path class="st0" d="M53.4,970.3c-1.2-0.1-2.3,0.1-3.4,0.4c-2.2,0.5-4.5,1.3-6.8,2.5c-4.7,2.3-9.7,5.9-13.6,9.9c0,0,0,0-0.1,0.1
		c-9.9,10-12.9,23.5-10.9,36.4c2,13,8.8,25.7,18.4,35.4l60.3,60.3c9.7,9.7,22.4,16.4,35.4,18.4c13,2,26.4-1,36.4-10.9
		c0,0,0,0,0.1-0.1c4.1-4,7.6-8.9,9.9-13.6c1.2-2.4,2.1-4.6,2.6-6.8s0.8-4.6-0.9-7c-0.3-0.4-0.6-0.7-0.9-0.9l-32.4-23.5
		c-1.6-1.2-3.8-1-5.2,0.4l-6.7,6.7c-2.9,2.9-5.7,4.1-8.3,4.3c-2.5,0.2-4.9-0.7-7.3-3.1l-46.9-46.9c-2.4-2.4-3.3-4.9-3.1-7.4
		c0.2-2.5,1.5-5.3,4.3-8.2l6.7-6.7c1.4-1.4,1.5-3.6,0.4-5.2l-23.4-32.4c-0.3-0.4-0.6-0.7-1-1C55.7,970.6,54.5,970.4,53.4,970.3z
		 M52.4,978.4l20.6,28.3l-4.3,4.3c-3.9,3.9-6.3,8.5-6.6,13.4c-0.3,4.8,1.7,9.7,5.4,13.5l46.9,46.9c3.8,3.8,8.6,5.7,13.4,5.4
		c4.8-0.3,9.5-2.7,13.4-6.6l4.3-4.3l28.4,20.5c0,0.2,0,0.4-0.1,0.8c-0.3,1.2-0.9,2.9-1.9,4.9c-1.9,3.9-5.1,8.4-8.4,11.6
		c0,0,0,0-0.1,0.1c-8,8-18.6,10.3-29.6,8.6c-11.1-1.7-22.4-7.7-30.9-16.2l-60.3-60.3c-8.5-8.5-14.5-19.9-16.2-30.9
		s0.7-21.6,8.7-29.6c0,0,0,0,0.1-0.1c3.2-3.3,7.6-6.4,11.5-8.4c1.9-1,3.7-1.6,4.9-1.9C52.1,978.4,52.2,978.4,52.4,978.4z"/>
</g>
</svg>
