<svg id="Layer_1" xmlns="http://www.w3.org/2000/svg" viewBox="0 0 200 200"><style>.st0{fill:#ed1c24}</style><path class="st0" d="M53.4 970.3c-1.2-.1-2.3.1-3.4.4-2.2.5-4.5 1.3-6.8 2.5-4.7 2.3-9.7 5.9-13.6 9.9l-.1.1c-9.9 10-12.9 23.5-10.9 36.4 2 13 8.8 25.7 18.4 35.4l60.3 60.3c9.7 9.7 22.4 16.4 35.4 18.4s26.4-1 36.4-10.9l.1-.1c4.1-4 7.6-8.9 9.9-13.6 1.2-2.4 2.1-4.6 2.6-6.8s.8-4.6-.9-7c-.3-.4-.6-.7-.9-.9l-32.4-23.5c-1.6-1.2-3.8-1-5.2.4l-6.7 6.7c-2.9 2.9-5.7 4.1-8.3 4.3-2.5.2-4.9-.7-7.3-3.1l-46.9-46.9c-2.4-2.4-3.3-4.9-3.1-7.4.2-2.5 1.5-5.3 4.3-8.2l6.7-6.7c1.4-1.4 1.5-3.6.4-5.2L58 972.4c-.3-.4-.6-.7-1-1-1.3-.8-2.5-1-3.6-1.1zm-1 8.1l20.6 28.3-4.3 4.3c-3.9 3.9-6.3 8.5-6.6 13.4-.3 4.8 1.7 9.7 5.4 13.5l46.9 46.9c3.8 3.8 8.6 5.7 13.4 5.4 4.8-.3 9.5-2.7 13.4-6.6l4.3-4.3 28.4 20.5c0 .2 0 .4-.1.8-.3 1.2-.9 2.9-1.9 4.9-1.9 3.9-5.1 8.4-8.4 11.6l-.1.1c-8 8-18.6 10.3-29.6 8.6-11.1-1.7-22.4-7.7-30.9-16.2l-60.3-60.3c-8.5-8.5-14.5-19.9-16.2-30.9s.7-21.6 8.7-29.6l.1-.1c3.2-3.3 7.6-6.4 11.5-8.4 1.9-1 3.7-1.6 4.9-1.9h.8z" transform="translate(0 -952.362)"/></svg>